Coordinates
version=1
nRows=16
nColumns=42
inDegrees=yes

Units are S.I. units (second, meters, Newtons, ...)
If the header above contains a line with 'inDegrees', this indicates whether rotational values are in degrees (yes) or radians (no).

endheader
time	pelvis_tilt	pelvis_list	pelvis_rotation	pelvis_tx	pelvis_ty	pelvis_tz	hip_flexion_r	hip_adduction_r	hip_rotation_r	knee_angle_r	knee_adduction_r	knee_angle_r_beta	ankle_angle_r	subtalar_angle_r	mtp_angle_r	hip_flexion_l	hip_adduction_l	hip_rotation_l	knee_angle_l	knee_adduction_l	knee_angle_l_beta	ankle_angle_l	subtalar_angle_l	mtp_angle_l	lumbar_extension	lumbar_bending	lumbar_rotation	arm_flex_r	arm_add_r	arm_rot_r	elbow_flex_r	pro_sup_r	wrist_flex_r	wrist_dev_r	arm_flex_l	arm_add_l	arm_rot_l	elbow_flex_l	pro_sup_l	wrist_flex_l	wrist_dev_l
      1.68000000	     13.74259453	     -4.91395121	     -0.77321234	     -1.05490312	      0.90052307	      0.03502286	    -29.17608526	     -0.39779506	    -12.02130689	     13.46473911	     11.63328721	      0.23500403	     15.23912372	     34.86204350	     -7.57429754	     15.72312686	     -7.35333748	     -7.81574560	     25.87428561	     -4.49695448	      0.45159148	     13.99855666	      9.59216964	     -7.57429754	    -29.25753984	      0.78647901	      0.44243570	     13.64323756	    -33.52019461	      5.78544965	     84.78346787	     90.00000001	      0.00000000	      0.00000000	     -7.16452651	     -7.77462684	    -11.91948662	     38.42492940	     90.00000001	      0.00000000	      0.00000000
      1.69000000	     13.45687790	     -4.84328931	     -0.81113858	     -1.04558572	      0.89954317	      0.03345413	    -29.29566790	     -0.74053076	    -11.83974313	     13.87858734	     11.66771174	      0.24222704	     15.07769260	     34.91412872	     -7.57346745	     15.87134966	     -7.03479094	     -7.55309151	     26.81813254	     -4.60487470	      0.46806471	     13.91153411	      9.75027991	     -7.57346745	    -28.90026990	      0.76301658	      0.38478698	     13.41458023	    -33.50311790	      5.50935205	     85.28530491	     90.00000001	      0.00000000	      0.00000000	     -7.16065523	     -7.84386890	    -11.99112913	     38.49338390	     90.00000001	      0.00000000	      0.00000000
      1.70000000	     13.15587944	     -4.77825443	     -0.82926645	     -1.03621392	      0.89863635	      0.03174611	    -29.38415828	     -1.07270421	    -11.72693405	     14.32895693	     11.68183984	      0.25008748	     14.88961483	     35.01326727	     -7.57279109	     16.08901039	     -6.71490881	     -7.19476065	     27.86566526	     -4.68666606	      0.48634761	     13.79288016	     10.02779919	     -7.57279109	    -28.54189342	      0.76240313	      0.33345593	     13.09618987	    -33.43142363	      5.17171342	     85.71415286	     90.00000001	      0.00000000	      0.00000000	     -7.10423999	     -7.89872919	    -12.05083530	     38.54594995	     90.00000001	      0.00000000	      0.00000000
      1.71000000	     12.89106494	     -4.66467144	     -0.96049554	     -1.02682871	      0.89808980	      0.03031548	    -29.47172125	     -1.35862595	    -11.37836085	     14.71808162	     11.38256868	      0.25687898	     14.68196917	     35.10667075	     -7.57256927	     16.12853825	     -6.33314594	     -6.66592247	     28.63975943	     -4.75831038	      0.49985810	     13.62528860	     10.28105347	     -7.57256927	    -28.24215442	      0.63369629	      0.35904457	     12.82602465	    -33.35015429	      5.05867663	     85.85898277	     90.00000001	      0.00000000	      0.00000000	     -7.00160485	     -7.99487482	    -12.09345854	     38.59658850	     90.00000001	      0.00000000	      0.00000000
      1.72000000	     12.52035299	     -4.61904214	     -0.77725128	     -1.01715937	      0.89707754	      0.02808340	    -29.46965998	     -1.62984407	    -11.96266817	     15.35501066	     11.37850428	      0.26799549	     14.21630995	     35.54931757	     -7.57035537	     16.73147294	     -6.02218486	     -6.43839963	     30.23308859	     -4.95840279	      0.52766694	     13.67554804	     10.81067748	     -7.57035537	    -27.81686512	      0.76999710	      0.30498137	     12.03921504	    -33.14941857	      4.15471673	     86.45589565	     90.00000001	      0.00000000	      0.00000000	     -6.80685335	     -8.03314030	    -12.05175899	     38.59910053	     90.00000001	      0.00000000	      0.00000000
      1.73000000	     12.23583187	     -4.44833052	     -0.78227202	     -1.00756192	      0.89655507	      0.02607973	    -29.50140298	     -2.06434722	    -11.97263827	     15.95343387	     11.35293589	      0.27843995	     13.77883363	     35.58715364	     -7.56954809	     16.95979616	     -5.60588728	     -5.88051460	     31.32357152	     -4.90600938	      0.54669946	     13.40351757	     10.91459051	     -7.56954809	    -27.51460250	      0.68212607	      0.25730172	     11.50521963	    -32.99316366	      3.82446108	     86.63329044	     90.00000001	      0.00000000	      0.00000000	     -6.63815993	     -8.08717420	    -12.05963264	     38.66921574	     90.00000001	      0.00000000	      0.00000000
      1.74000000	     12.03193752	     -4.27781375	     -0.88215004	     -0.99794305	      0.89644859	      0.02432150	    -29.55698753	     -2.43612092	    -11.69899755	     16.53090144	     11.12314664	      0.28851866	     13.36846988	     35.61759802	     -7.56926103	     16.96604836	     -5.23351507	     -5.27776680	     32.18878302	     -4.78812202	      0.56180025	     13.16026015	     10.99419253	     -7.56926103	    -27.31523452	      0.53542776	      0.28832064	     11.00945037	    -32.82106140	      3.68458069	     86.59233192	     90.00000001	      0.00000000	      0.00000000	     -6.41103380	     -8.15104947	    -12.06649976	     38.72132035	     90.00000001	      0.00000000	      0.00000000
      1.75000000	     11.82482240	     -4.08775779	     -0.82137398	     -0.98815403	      0.89628893	      0.02215698	    -29.53659809	     -2.94061132	    -12.19627049	     17.53511479	     11.17562128	      0.30604549	     12.39542299	     35.46407112	     -7.56852906	     17.08715853	     -4.88922367	     -4.68231563	     33.29970885	     -4.49553285	      0.58118956	     12.87954101	     10.40091664	     -7.56852906	    -27.11550296	      0.45890794	      0.26404820	     10.19882158	    -32.46517353	      3.00875233	     86.72203932	     90.00000001	      0.00000000	      0.00000000	     -6.11175159	     -8.21084056	    -12.01871246	     38.65663265	     90.00000001	      0.00000000	      0.00000000
      1.76000000	     11.77141306	     -3.56157528	     -0.77552176	     -0.97859318	      0.89680797	      0.01963745	    -29.53929912	     -3.74181197	    -13.15551557	     18.79570964	     10.81452029	      0.32804702	     11.40586518	     36.07692249	     -7.56418999	     16.57073906	     -3.97363227	     -2.81309925	     33.56467132	     -3.68679427	      0.58581403	     11.90354706	      7.13606371	     -7.56418999	    -27.14014510	      0.03772319	      0.14404984	      9.43488629	    -32.08000026	      2.42935766	     86.65467263	     90.00000001	      0.00000000	      0.00000000	     -5.67362591	     -8.37179350	    -11.65571124	     38.56420339	     90.00000001	      0.00000000	      0.00000000
      1.77000000	     11.76256776	     -3.30139078	     -0.81696365	     -0.96878148	      0.89744788	      0.01762554	    -29.53185540	     -4.26454023	    -13.47886638	     20.03403030	     10.55448622	      0.34965979	     10.15916635	     35.80213419	     -7.56264135	     16.13232685	     -3.60945515	     -2.39835348	     34.05004102	     -3.35184532	      0.59428533	     11.66144258	      6.45440651	     -7.56264135	    -27.18952799	     -0.16983462	      0.16635715	      8.68468447	    -31.71010121	      2.04970675	     86.44554531	     90.00000001	      0.00000000	      0.00000000	     -5.25782025	     -8.44510894	    -11.63550027	     38.49151904	     90.00000001	      0.00000000	      0.00000000
      1.78000000	     11.85696823	     -3.13286514	     -0.89104513	     -0.95905707	      0.89838547	      0.01577797	    -29.51063316	     -4.69461549	    -13.59057155	     21.44116696	     10.27100756	      0.37421896	      8.93645229	     35.42652731	     -7.56208616	     15.52887367	     -3.46500933	     -2.28623805	     34.46320623	     -2.96002727	      0.60149642	     11.62721966	      6.07497094	     -7.56208616	    -27.37666560	     -0.30638777	      0.21683496	      8.06755367	    -31.31912196	      1.83866888	     85.99706641	     90.00000001	      0.00000000	      0.00000000	     -4.81436070	     -8.51917128	    -11.60263851	     38.49114297	     90.00000001	      0.00000000	      0.00000000
      1.79000000	     12.06312288	     -2.50726750	     -0.91883340	     -0.94925278	      0.89974970	      0.01334931	    -29.44814590	     -5.66724804	    -14.67894171	     23.36247875	      9.73482451	      0.40775218	      7.22078269	     35.49218161	     -7.55950050	     14.43431713	     -2.55764662	     -1.77263891	     34.11598775	     -2.65887358	      0.59543631	     11.06821872	      4.50620885	     -7.55950050	    -27.69145811	     -0.86583468	      0.09014596	      7.24211539	    -30.82086932	      1.43008411	     85.61494788	     90.00000001	      0.00000000	      0.00000000	     -4.25365455	     -8.66807973	    -11.38368475	     38.40181637	     90.00000001	      0.00000000	      0.00000000
      1.80000000	     12.33982681	     -2.45621803	     -0.92127916	     -0.93961046	      0.90126907	      0.01154209	    -29.33516147	     -5.89512818	    -14.71323557	     25.20476399	      9.23662707	      0.43990612	      5.76089444	     34.90101806	     -7.55901602	     13.44456469	     -2.53124360	     -1.98962487	     34.17350656	     -2.44818946	      0.59644021	     11.32598577	      4.31003398	     -7.55901602	    -28.10968975	     -0.87226003	      0.10386193	      6.67713611	    -30.39133244	      1.33930000	     84.92591436	     90.00000001	      0.00000000	      0.00000000	     -3.72089292	     -8.76151738	    -11.34623426	     38.46622939	     90.00000001	      0.00000000	      0.00000000
      1.81000000	     12.70608999	     -1.97310212	     -0.93924299	     -0.92977196	      0.90306987	      0.00934049	    -29.14320984	     -6.67403409	    -15.56243799	     27.55720593	      8.49572308	      0.48096398	      3.71691007	     34.07137809	     -7.55761699	     12.09043556	     -1.84133814	     -2.38182066	     33.61394914	     -2.56917370	      0.58667409	     11.35264504	      4.34339282	     -7.55761699	    -28.60385803	     -1.28720351	     -0.03630526	      5.88241346	    -29.85219370	      1.14328847	     84.32762451	     90.00000001	      0.00000000	      0.00000000	     -3.11242100	     -8.91984836	    -11.19225740	     38.45799607	     90.00000001	      0.00000000	      0.00000000
      1.82000000	     13.06376844	     -1.85139134	     -0.97536344	     -0.92023012	      0.90493573	      0.00759750	    -28.72124435	     -6.99556734	    -15.62851143	     30.04711121	      7.75667749	      0.52442102	      2.07871664	     33.19750417	     -7.55698621	     10.81156348	     -1.70005870	     -2.85977084	     33.24949357	     -2.48953838	      0.58031314	     11.77613991	      4.47650387	     -7.55698621	    -29.12333250	     -1.37778574	     -0.05911076	      5.28763395	    -29.33072148	      1.12276917	     83.41190974	     90.00000001	      0.00000000	      0.00000000	     -2.49105705	     -9.05113270	    -11.09666627	     38.52613261	     90.00000001	      0.00000000	      0.00000000
      1.83000000	     13.39914279	     -1.56044305	     -0.96365014	     -0.91082392	      0.90675590	      0.00555706	    -28.04981554	     -7.50369900	    -15.85078101	     32.97845591	      6.90162844	      0.57558264	      0.46920812	     31.95218124	     -7.55618351	      9.52434985	     -1.22071509	     -3.39928700	     32.72563881	     -2.69836746	      0.57117015	     12.14033322	      5.02938683	     -7.55618351	    -29.63175689	     -1.59277351	     -0.20067453	      4.63883118	    -28.80025924	      1.09383991	     82.50679916	     90.00000001	      0.00000000	      0.00000000	     -1.79461515	     -9.20571732	    -10.95594453	     38.56855280	     90.00000001	      0.00000000	      0.00000000
